<?xml version="1.0" standalone="no"?>
<!DOCTYPE svg PUBLIC "-//W3C//DTD SVG 20010904//EN"
 "http://www.w3.org/TR/2001/REC-SVG-20010904/DTD/svg10.dtd">
<svg version="1.0" xmlns="http://www.w3.org/2000/svg"
 width="766.000000pt" height="766.000000pt" viewBox="0 0 766.000000 766.000000"
 preserveAspectRatio="xMidYMid meet">
<metadata>
Created by potrace 1.11, written by Peter Selinger 2001-2013
</metadata>
<g transform="translate(0.000000,766.000000) scale(0.100000,-0.100000)"
fill="#000000" stroke="none">
<path d="M2925 7141 c-50 -17 -164 -81 -196 -110 -9 -9 -36 -32 -59 -51 -87
-73 -295 -288 -363 -377 -12 -15 -24 -30 -27 -33 -3 -3 -23 -27 -45 -55 -22
-27 -46 -58 -55 -67 -31 -35 -40 -47 -40 -57 0 -5 -4 -11 -8 -13 -8 -3 -142
-194 -142 -202 0 -3 -17 -31 -39 -63 -21 -32 -47 -74 -57 -93 -11 -19 -29 -49
-41 -67 -13 -17 -23 -34 -23 -38 0 -3 -18 -33 -40 -65 -22 -32 -40 -61 -40
-63 0 -3 -29 -52 -65 -111 -36 -58 -65 -108 -65 -110 0 -2 -20 -47 -45 -100
-25 -53 -45 -99 -45 -102 0 -3 -8 -24 -19 -47 -20 -44 -79 -201 -107 -283 -9
-27 -21 -60 -27 -74 -5 -14 -11 -30 -12 -36 -2 -7 -17 -52 -35 -100 -85 -236
-127 -346 -162 -422 -21 -46 -38 -85 -38 -86 0 -2 -24 -55 -54 -117 -29 -63
-61 -136 -71 -164 -10 -27 -22 -54 -25 -60 -16 -23 -122 -355 -135 -426 -2
-12 -7 -29 -10 -39 -7 -22 -13 -50 -21 -104 -3 -22 -7 -43 -9 -47 -2 -3 -7
-32 -10 -65 -4 -32 -9 -72 -12 -89 -9 -50 -12 -448 -4 -465 9 -18 0 -54 -14
-56 -5 -1 -30 -5 -55 -8 -223 -30 -476 -97 -580 -152 -75 -41 -90 -50 -103
-63 -12 -12 -4 -12 73 4 14 3 41 8 60 11 19 3 59 14 88 25 28 10 53 18 55 18
1 -1 29 7 62 17 33 10 64 17 68 16 4 -1 16 2 25 7 10 5 39 12 66 15 26 3 51 8
54 10 4 2 28 7 52 10 25 4 56 9 70 12 46 9 99 12 98 5 0 -3 0 -8 1 -11 1 -3 4
-18 6 -35 2 -16 7 -41 10 -55 3 -14 9 -38 11 -55 3 -16 25 -88 48 -158 24 -70
40 -129 37 -131 -3 -2 -28 -7 -54 -10 -27 -4 -90 -18 -140 -32 -51 -14 -99
-27 -107 -29 -14 -3 -76 -25 -125 -45 -11 -4 -65 -29 -120 -56 -55 -26 -103
-47 -107 -46 -5 1 -8 -2 -8 -7 0 -5 -12 -14 -27 -20 -31 -13 -57 -35 -118
-100 l-40 -42 55 22 c30 12 69 27 85 33 17 6 44 20 60 32 17 11 55 32 85 46
129 61 167 78 173 78 3 0 18 5 34 12 15 6 33 12 38 13 6 2 41 12 79 24 68 21
94 27 151 37 17 3 47 9 69 14 51 11 60 6 82 -43 20 -46 95 -175 126 -219 11
-16 15 -29 9 -29 -21 -3 -26 -5 -85 -32 -32 -15 -62 -27 -67 -27 -5 0 -9 -4
-9 -9 0 -5 -10 -13 -22 -16 -11 -4 -49 -27 -82 -52 -34 -24 -72 -52 -85 -61
-13 -9 -31 -24 -40 -32 -9 -9 -46 -42 -83 -74 -60 -52 -130 -140 -134 -171 -3
-19 102 49 166 107 87 80 106 95 189 154 42 29 81 57 86 62 13 10 129 66 176
85 l36 15 59 -76 c62 -80 267 -290 323 -332 19 -14 45 -35 60 -48 58 -51 279
-201 389 -264 98 -56 393 -199 422 -204 3 0 21 -8 41 -17 73 -33 308 -109 464
-152 153 -41 202 -53 345 -80 14 -3 35 -7 48 -9 13 -3 56 -10 95 -15 40 -6 81
-13 93 -15 11 -2 47 -7 80 -10 32 -4 77 -9 99 -12 102 -13 212 -17 490 -18
306 -1 436 6 595 29 14 2 52 7 85 11 33 3 63 8 66 10 3 1 28 6 55 10 27 3 52
8 55 10 3 2 21 6 40 9 19 3 48 8 64 12 17 4 32 7 35 8 3 1 19 4 35 8 17 4 39
9 50 12 11 2 36 9 55 14 19 5 62 17 95 26 33 9 69 20 80 25 11 5 40 16 65 24
57 19 161 58 223 85 26 11 48 20 50 20 15 -3 349 187 355 203 2 4 9 8 15 8 7
0 24 10 39 23 14 12 39 31 54 42 141 102 297 263 403 416 55 80 136 236 179
344 27 69 103 304 107 335 2 14 7 41 11 60 4 19 8 79 8 133 1 57 5 97 11 98 6
0 62 2 125 4 176 4 334 15 343 24 8 8 -83 30 -163 38 -60 7 -222 6 -287 -1
-30 -4 -53 -2 -53 3 0 14 -37 91 -60 126 -11 17 -23 37 -27 45 -3 8 -11 18
-17 22 -6 4 -7 10 -4 14 13 13 145 29 235 29 52 0 89 4 85 9 -3 5 0 6 6 2 6
-3 32 -9 59 -11 26 -3 62 -8 78 -12 47 -9 95 -11 100 -2 3 4 15 5 27 1 33 -8
13 15 -35 41 -63 33 -156 46 -307 42 -144 -4 -204 -9 -260 -25 -31 -9 -37 -8
-55 14 -35 41 -50 60 -75 96 -13 19 -30 41 -37 48 -40 41 -37 50 29 82 74 36
158 64 283 94 69 17 109 24 180 32 28 3 61 7 75 10 14 2 79 6 145 9 66 4 131
9 145 12 14 3 31 7 39 9 8 2 26 6 40 10 14 4 30 6 34 5 5 -1 6 3 3 8 -18 29
-259 38 -426 16 -19 -2 -57 -7 -85 -11 -27 -3 -69 -10 -93 -15 -23 -5 -59 -12
-80 -15 -20 -3 -46 -11 -57 -17 -11 -6 -21 -9 -23 -8 -7 7 -144 -42 -211 -74
l-73 -36 -17 23 c-103 145 -260 434 -355 653 -26 61 -54 126 -63 145 -56 129
-154 411 -148 429 2 9 7 30 10 46 23 135 33 198 41 270 2 22 6 54 9 72 7 47
18 173 19 215 1 21 3 38 6 38 3 0 5 17 6 38 1 20 4 80 8 132 16 234 20 350 20
565 -1 236 -5 317 -28 495 -27 207 -102 355 -195 380 -53 14 -143 -13 -208
-63 -57 -42 -169 -166 -213 -233 -53 -81 -157 -289 -169 -336 -1 -4 -9 -24
-17 -45 -9 -20 -17 -45 -19 -55 -2 -9 -11 -32 -19 -50 -8 -18 -24 -64 -35
-103 -11 -38 -29 -101 -41 -140 -11 -38 -23 -85 -26 -104 -3 -19 -10 -46 -15
-60 -6 -14 -13 -44 -16 -66 -3 -22 -9 -47 -13 -55 -4 -8 -10 -33 -14 -55 -3
-22 -10 -56 -16 -75 -6 -19 -12 -46 -15 -60 -4 -23 -8 -41 -19 -87 -2 -10 -14
-61 -25 -113 -39 -171 -84 -317 -113 -367 -18 -29 -30 -35 -68 -35 -22 0 -150
13 -170 17 -14 3 -36 7 -50 10 -52 8 -103 17 -124 21 -59 13 -124 16 -386 19
-157 2 -302 5 -322 8 -103 16 -123 19 -128 22 -3 2 -26 6 -50 10 -96 13 -319
93 -328 116 -2 5 -10 9 -17 9 -8 0 -40 25 -71 55 l-57 56 6 107 c4 59 9 123
11 142 3 19 7 60 10 90 4 30 8 66 10 80 3 14 7 48 10 75 3 28 8 61 10 75 3 14
7 52 11 85 3 33 10 89 15 125 5 36 12 92 15 125 4 33 9 74 11 90 8 64 16 140
20 194 2 31 6 76 8 101 18 208 24 479 12 499 -4 5 -2 12 4 16 6 4 7 12 3 18
-4 6 -8 34 -10 61 -6 113 -34 229 -73 307 -61 122 -166 165 -295 120z"/>
</g>
</svg>
