<?xml version="1.0" encoding="utf-8"?>
<!-- Generator: Adobe Illustrator 22.1.0, SVG Export Plug-In . SVG Version: 6.00 Build 0)  -->
<svg version="1.1" id="Layer_1" xmlns="http://www.w3.org/2000/svg" xmlns:xlink="http://www.w3.org/1999/xlink" x="0px" y="0px"
	 viewBox="0 0 382.5 333" style="enable-background:new 0 0 382.5 333;" xml:space="preserve">
<style type="text/css">
	.st0{fill:#72C2DA;}
	.st1{fill:none;stroke:#000000;stroke-width:3.5;stroke-linecap:round;stroke-linejoin:round;}
	.st2{fill:none;}
	.st3{fill:#B6DEE7;}
	.st4{fill:#F7FFD4;}
	.st5{fill-opacity:0;}
	.st6{fill-opacity:0;stroke:#000000;stroke-width:3.5;stroke-linecap:round;stroke-linejoin:round;}
	.st7{stroke:#000000;stroke-miterlimit:10;}
	.st8{fill:none;stroke:#B6DEE7;stroke-miterlimit:10;}
</style>
<title>Asset 3</title>
<g id="XMLID_1_">
	<g>
		<path class="st0" d="M298.3,141.8c32,94.8,61.8,71.1,43.2,121C300.4,386-42,341.5,58.5,141.8c9-18.6,16.3-49.9,27.5-67.5
			c8.1-12.7,15.1-26.1,24.5-38c85.6-108.4,39.7,72.3,45.5,81c9.9,14.8,45.2,15.7,60,14.5c6.7-0.6,24,5,29,3
			c9.9-4,12.6-88.1,44.5-104C314.3,18.4,302.2,128.5,298.3,141.8z"/>
	</g>
	<g>
		<path class="st1" d="M298.3,141.8c32,94.8,61.8,71.1,43.2,121C300.4,386-42,341.5,58.5,141.8c9-18.6,16.3-49.9,27.5-67.5
			c8.1-12.7,15.1-26.1,24.5-38c85.6-108.4,39.7,72.3,45.5,81c9.9,14.8,45.2,15.7,60,14.5c6.7-0.6,24,5,29,3
			c9.9-4,12.6-88.1,44.5-104C314.3,18.4,302.2,128.5,298.3,141.8z"/>
	</g>
</g>
<path class="st2" d="M118.5,165.8c34.8-13.4,69.4,55.6,44.5,83C153,259.8,107.6,196.6,118.5,165.8"/>
<path class="st3" d="M210.5,239.6l6.6,4.8l9.2-5.7v6.1c1.6,0.3-2.2,1.9-2.1,2.6c0.3,1.3-2.2,3.2-7.3,5.8c-0.4,0.2-2.7,1.4-5.4,0.3
	c-2.7-1.1-3.8-3.5-4-4C207.7,245.7,210.3,243.3,210.5,239.6z"/>
<path class="st4" d="M164.6,189.3c14.7,20.3,9.6,51.4-1.6,59.5s-20.2-9.1-34.9-29.4s-16.2-48.5-9.6-53.6
	C129.3,157.4,149.9,169,164.6,189.3z"/>
<path class="st4" d="M306.1,195.9c3.5,21.1-26.7,43.7-41.2,35c-6.9-4.1-8.6-9.9-2-39.4c4.8-21.8,17.5-37.5,28.2-35.2
	C301.8,158.7,302.4,173.8,306.1,195.9z"/>
<g id="XMLID_2_">
	<g>
		<path d="M174,216.1c0.7,4.8,0.8,9.7,0.2,14.5c-0.6,5-2.1,9.8-4.4,14.2c-0.7,1.1-1.3,2.1-2,3.2s-1.6,2-2.4,3
			c-0.7,0.8-1.6,1.4-2.6,1.7c-0.5,0.2-1,0.3-1.5,0.4c-0.5,0.1-0.9,0.1-1.4,0.1c-1.6-0.1-3.1-0.5-4.5-1.2c-2.3-1.2-4.4-2.6-6.4-4.3
			c-1.8-1.6-3.5-3.3-5.1-5.1c-3.1-3.5-6-7.3-8.6-11.2c-2.6-3.9-5-7.9-7.2-12c-4.5-8.2-7.9-16.9-10.1-26c-1.1-4.6-1.7-9.3-1.8-14
			c0-2.3,0.1-4.7,0.4-7c0.4-2.2,0.9-4.3,1.8-6.4c0,0,0,0.1,0,0.1c0,0.1,0.1,0.1,0.2,0.1c0,0,0.1,0,0.1,0c-1.3,4.3-1.8,8.7-1.4,13.1
			c0.3,4.6,1.1,9.1,2.4,13.5c2.6,8.8,6.2,17.2,10.7,25.2c4.4,8,9.8,15.5,15.9,22.3c1.5,1.7,3.2,3.3,4.9,4.8s3.6,2.8,5.6,3.8
			c1,0.5,2.1,0.8,3.2,0.9c1.1,0.1,2.1-0.3,2.8-1.1l2.1-2.6l1.8-2.9c2.2-4,3.6-8.4,4.1-12.9s0.5-9.1-0.1-13.6c-0.6-4.5-1.6-9-3-13.3
			c-1.5-4.3-3.3-8.5-5.5-12.5c-4.4-8-10.2-15.4-17.7-20.6c-3.7-2.7-8-4.5-12.5-5.4c-4.5-0.8-9.1-0.4-13.3,1.3c0-0.1,0.1-0.3,0.1-0.4
			c0-0.1,0-0.2-0.1-0.2c-0.1,0-0.2,0-0.2,0.1c0,0.1-0.1,0.2-0.1,0.3c0-0.1-0.1-0.2-0.1-0.2c0-0.1,0-0.1,0.1-0.2l3.3-1.3
			c1.1-0.3,2.3-0.6,3.4-0.8c1.2-0.1,2.3-0.3,3.5-0.3l1.8,0.1c0.6,0,1.2,0.1,1.8,0.2c4.7,0.7,9.3,2.4,13.3,5s7.6,5.7,10.8,9.3
			c3.2,3.5,5.9,7.4,8.3,11.5C169.4,197.5,172.6,206.6,174,216.1z"/>
		<path d="M118.8,165.8c0,0.1-0.1,0.3-0.1,0.4c0,0-0.1,0-0.1,0c-0.1,0-0.2,0-0.2-0.1c0,0,0-0.1,0-0.1c0-0.1,0.1-0.2,0.1-0.3
			c0-0.1,0.1-0.1,0.2-0.1C118.8,165.6,118.8,165.7,118.8,165.8z"/>
	</g>
	<g>
	</g>
</g>
<path class="st5" d="M258.5,219.8c1.8-8,3.4-16.2,6-24c32.3-96.9,63,36.5,9,36.5c-11.7,0-12.2-3-15-13.5"/>
<path d="M258.3,219.8l0.8-5.8l1-5.8c0.7-3.8,1.4-7.7,2.4-11.5c2-7.6,4.7-15,8-22.2c1.8-3.7,3.9-7.2,6.5-10.4c1.4-1.7,3-3.2,4.8-4.5
	c2.1-1.5,4.6-2.2,7.2-2.2c2.6,0.2,5.1,1.2,7,3c1.7,1.5,3.1,3.3,4.2,5.3c2,3.7,3.5,7.6,4.3,11.7c1.7,8,1.9,16.1,0.7,24.2
	c-0.6,4-1.7,8-3.1,11.8c-1.5,3.9-3.6,7.5-6.3,10.7c-1.4,1.6-2.9,3.1-4.6,4.3c-1.7,1.3-3.5,2.3-5.5,3.2c-3.9,1.6-8,2.3-12.1,2.1
	c-2-0.1-4-0.3-6-0.7c-1-0.2-2-0.5-3-1s-1.9-1.2-2.6-2c-1.2-1.7-2.1-3.6-2.5-5.6c-0.5-1.9-0.8-3.8-1.1-5.7l0,0c0-0.1,0-0.2,0.1-0.2
	l0,0c0.1,0,0.2,0,0.2,0.1c0.5,1.9,1,3.7,1.6,5.6c0.5,1.8,1.4,3.6,2.6,5.1c1.4,1.3,3.2,2.1,5.1,2.3c1.9,0.3,3.8,0.4,5.8,0.4
	c3.9,0,7.7-0.8,11.2-2.4c1.7-0.8,3.4-1.8,4.9-3s2.8-2.6,4-4.1c4.8-6,7.3-13.6,8.3-21.2c0.5-3.8,0.7-7.7,0.6-11.5s-0.6-7.7-1.4-11.4
	c-0.8-3.8-2.1-7.4-3.9-10.8c-0.9-1.7-2.1-3.2-3.5-4.5s-3.1-2.1-5-2.3c-1.9-0.1-3.7,0.5-5.3,1.6c-1.6,1.1-3,2.4-4.2,3.8
	c-2.5,3-4.6,6.2-6.3,9.6c-3.5,6.9-6.4,14.1-8.7,21.4c-2.3,7.4-3.9,15-5.6,22.5c0,0.1-0.1,0.1-0.2,0.1
	C258.4,220,258.3,219.9,258.3,219.8L258.3,219.8z"/>
<path class="st6" d="M149,219.8c0.2,5.7-1.2,11.4-2,17"/>
<path class="st6" d="M281.7,208.3c0.2,7.8-1.2,15.5-2,23.1"/>
<path class="st5" d="M137.2,259.8c-5.2,6.9-9.4,18.3-9.4,29.8c0,57.3,84.8-26.8,88.3-25.8c9,2.4,15.6,19.9,27.1,21.2
	c16.2,1.9,91.4-11.9,45.2-31.8"/>
<path class="st7" d="M136.6,253c-3,4.7-5.2,9.8-6.5,15.2c-1.4,5.3-1.9,10.8-1.7,16.3c0.1,2.7,0.5,5.4,1.3,7.9c0.6,2.4,2,4.7,3.9,6.4
	c2,1.5,4.4,2.3,6.8,2.3c2.7,0,5.3-0.4,7.8-1.1c5.3-1.6,10.4-3.7,15.2-6.4c2.5-1.3,4.9-2.7,7.3-4.1s4.7-3,7-4.6
	c9.2-6.5,17.9-13.4,26.3-20.9c2.1-1.8,4.2-3.7,6.4-5.5c0.5-0.5,1.1-0.9,1.7-1.3c0.6-0.5,1.2-0.9,1.9-1.3c0.3-0.2,0.5-0.3,0.8-0.3
	c0.2,0,0.3,0,0.5,0h0.3h0.1l0.3,0.1c0.4,0.1,0.8,0.2,1.1,0.4c0.7,0.3,1.4,0.7,2.1,1.1c2.4,1.7,4.6,3.6,6.5,5.9
	c1.9,2.1,3.7,4.2,5.6,6.2c1.8,2,3.8,3.7,6.1,5.1c1.1,0.7,2.2,1.2,3.4,1.5l0.9,0.2l0.9,0.1c0.6,0.1,1.3,0.1,2,0.1
	c5.5,0,11-0.5,16.4-1.3c5.5-0.8,11-1.8,16.3-3.1c2.7-0.6,5.4-1.4,8-2.2c2.6-0.8,5.2-1.8,7.7-2.9c2.4-1,4.7-2.5,6.6-4.3
	c0.9-0.8,1.5-1.9,1.7-3.1s-0.1-2.4-0.7-3.4c-1.5-2.2-3.5-4.1-5.8-5.5c-2.3-1.5-4.8-2.9-7.3-4.1c-0.1,0-0.1-0.1-0.1-0.2
	c0-0.1,0.1-0.1,0.2-0.1c2.7,1,5.2,2.1,7.7,3.5s5,3,6.7,5.5c0.4,0.7,0.8,1.4,1,2.1c0.2,0.8,0.3,1.6,0.2,2.5c-0.2,1.6-0.9,3.1-2,4.3
	c-2,2.2-4.4,4-7.1,5.3c-5.1,2.6-10.5,4.6-16,6c-5.5,1.5-11,2.6-16.7,3.5c-2.8,0.4-5.6,0.8-8.5,1c-2.9,0.3-5.8,0.4-8.6,0.3
	c-0.7,0-1.5-0.1-2.3-0.2l-1.2-0.2l-1.2-0.3c-1.5-0.5-2.9-1.1-4.2-2c-2.5-1.7-4.7-3.6-6.6-5.9c-1.9-2.1-3.7-4.3-5.5-6.4
	c-1.7-2.1-3.6-4-5.7-5.6c-0.5-0.4-1.1-0.7-1.6-0.9c-0.3-0.1-0.6-0.2-0.8-0.3l-0.2-0.1h0h0.2h0.3c0.1,0,0,0-0.1,0.1
	c-0.6,0.3-1.1,0.6-1.6,1l-1.7,1.2c-2.2,1.6-4.4,3.4-6.7,5.1c-8.9,6.9-17.8,13.8-26.9,20.3c-2.3,1.6-4.6,3.3-6.9,4.9
	s-4.7,3.1-7.1,4.6c-4.8,3.1-10,5.6-15.4,7.5c-2.8,0.9-5.8,1.4-8.7,1.5c-1.6,0-3.1-0.3-4.6-0.7c-1.5-0.5-2.9-1.3-4.2-2.3
	c-2.3-2.1-3.9-4.8-4.7-7.9c-0.8-2.8-1.1-5.7-1.1-8.7c-0.1-5.8,0.8-11.5,2.6-16.9c0.9-2.7,2-5.3,3.3-7.9c1.3-2.5,2.9-4.9,4.7-7.1
	c0.1-0.1,0.2-0.1,0.3,0C136.6,252.8,136.6,252.9,136.6,253z"/>
<path class="st5" d="M88,107.8c94.9-177.6,51.6-36,48.6,12.5"/>
<path class="st3" d="M132.9,113.2l-2.3-34.3l-40.6,26c-7.4-3.5,14.5-33.2,14.5-33.2s42.8-60.6,42.9-51.2l-5.9,64.9
	C141.5,85.4,140.3,116.7,132.9,113.2z"/>
<path class="st3" d="M286.1,131L274,119.6l-10.3,7.4c-5.8-1.6,1.4-27.6,1.4-27.6s26.9-62.2,27.6-53.2l-4.9,59.3
	C287.7,105.4,291.9,132.6,286.1,131z"/>
<path d="M87.8,107.7c3.5-7.9,7.3-15.7,11.3-23.3c2-3.8,4.1-7.6,6.2-11.4s4.3-7.5,6.6-11.2c4.6-7.3,9.6-14.4,14.4-21.6
	c2.5-3.6,4.9-7.1,7.6-10.6c1.3-1.7,2.7-3.4,4.2-5c0.7-0.8,1.5-1.6,2.4-2.3c0.9-0.8,1.8-1.5,2.9-2c0.6-0.3,1.3-0.5,1.9-0.5
	c0.8,0,1.5,0.2,2.1,0.7c1,0.9,1.7,2,2.1,3.3c0.6,2.2,0.9,4.5,0.9,6.7c0.1,4.4-0.2,8.8-0.6,13.1c-0.9,8.7-2.2,17.2-3.7,25.7
	s-3.2,17-4.9,25.4c-0.8,4.2-3.9,19.2-4,19.2c-0.1,0,0-11,1.2-19.6c1.1-8.6,2.5-17.1,3.9-25.6l2.1-12.8c0.7-4.2,1.4-8.5,1.9-12.7
	c0.6-4.2,1-8.5,1.1-12.7c0.1-2,0-4.1-0.4-6.1c-0.1-0.8-0.5-1.6-1.1-2.2c-0.2-0.2-0.5-0.3-0.9-0.3s-0.8,0.1-1.2,0.2
	c-1.8,0.9-3.5,2.1-4.9,3.6c-1.5,1.5-3,3.1-4.3,4.7c-2.7,3.3-5.2,6.8-7.6,10.5c-4.7,7.2-8.7,14.9-12.9,22.4
	c-2.1,3.8-4.2,7.6-6.4,11.3l-6.5,11.2c-4.4,7.4-8.7,14.9-13.4,22.2c-0.1,0.1-0.2,0.1-0.2,0C87.8,107.9,87.8,107.8,87.8,107.7z"/>
<path class="st5" d="M258.5,127.7c47.1-151.1,34.7-58.8,25.3,3.4"/>
<path d="M258.3,127.6c1.5-7.2,3.5-14.2,5.5-21.3c1-3.5,2.1-7,3.2-10.5s2.3-6.9,3.6-10.4c2.6-6.8,5.6-13.6,8.4-20.3
	c1.4-3.4,2.8-6.8,4.3-10.2c0.7-1.7,1.5-3.3,2.3-5c0.4-0.8,0.9-1.7,1.4-2.5c0.5-0.9,1.2-1.7,2-2.3c0.3-0.2,0.6-0.4,0.9-0.5
	c0.4-0.1,0.9-0.1,1.3,0c0.7,0.3,1.2,0.9,1.4,1.5c0.4,0.9,0.7,1.9,0.8,2.9c0.3,1.9,0.5,3.7,0.5,5.6c0.1,3.7,0,7.4-0.3,11.1
	c-0.4,7.3-1.1,14.6-2,21.9c-1,7.3-2.1,14.5-3.4,21.7s-2.8,14.5-4.4,21.6c0,0.1-0.1,0.1-0.2,0.1s-0.1-0.1-0.1-0.2
	c1.1-14.6,2.8-29.1,4.4-43.6c0.8-7.2,1.8-14.5,2.5-21.7c0.3-3.6,0.6-7.2,0.7-10.8c0.1-1.8,0.1-3.5-0.1-5.3c0-0.8-0.2-1.6-0.4-2.4
	c-0.1-0.2-0.2-0.4-0.3-0.5l0,0c-0.1,0-0.2,0.1-0.3,0.1c-0.6,0.5-1.2,1.1-1.7,1.7c-0.5,0.7-1,1.5-1.5,2.2c-0.9,1.5-1.8,3.2-2.6,4.8
	c-1.6,3.3-3,6.7-4.3,10.1c-2.6,6.8-4.5,13.9-6.7,20.9c-1.1,3.5-2.2,6.9-3.4,10.4c-1.2,3.5-2.4,6.9-3.6,10.3
	C263.7,113.9,261.2,120.8,258.3,127.6c0.1,0,0,0-0.1,0l0,0C258.4,127.8,258.3,127.7,258.3,127.6z"/>
<path class="st6" d="M129.3,106.3c4.4-2.5-3.6,9.1,7.2,6.6"/>
<path class="st5" d="M88,107.8c29.5-31.6,72.4-36.3,41.3-1.1"/>
<path d="M87.8,107.7c1.9-2.9,4.1-5.7,6.6-8.1c2.4-2.5,5.1-4.8,8-6.7c2.9-1.9,6.1-3.4,9.1-5.2s6-3.5,9-5.2c3.1-1.9,6.6-3.1,10.1-3.6
	c1-0.1,2-0.1,3,0c1.2,0.1,2.3,0.6,3.3,1.4c0.5,0.4,0.9,0.9,1.2,1.5c0,0.1,0.1,0.1,0.1,0.2c0.3,0.6,0.5,1.1,0.6,1.7
	c0.1,1.1,0,2.1-0.2,3.1c0,0.1,0,0.1,0,0.2c-0.5,1.8-1.3,3.5-2.3,5.1c-0.9,1.5-2,3-3.1,4.3c-1.8,2.3-2.2,7.4-3.9,10.3
	c-0.5,0.8-1.7,0.8-2.2,0c-0.8-1.2,2.1-8.9,3.8-11.8c0.9-1.4,1.7-2.9,2.4-4.4c0.7-1.4,1.3-2.9,1.6-4.4c0.1-0.6,0.2-1.2,0.1-1.9
	c0-0.4-0.2-0.8-0.5-1.1c-0.5-0.6-2.1-0.9-3.6-0.8c-1.6,0.1-3.2,0.3-4.8,0.7c-1.6,0.4-3.3,0.8-4.9,1.3c-3.3,1.1-6.4,2.5-9.2,4.4
	c-2.7,1.9-5.2,4.1-7.7,6.3c-1.4,1.2-2.8,2.4-4.2,3.5l-4,3.2c-2.7,2.1-5.3,4.3-8.2,6.4c-0.1,0.1-0.2,0.1-0.3,0
	C87.7,107.9,87.7,107.8,87.8,107.7L87.8,107.7z"/>
<path class="st5" d="M258.5,127.7c21.2-29.9,9.2-3.1,27.2,4.3"/>
<path d="M258.4,127.6c0.5-1.8,1.3-3.5,2.2-5.1c0.9-1.6,2-3.1,3.3-4.4c1.4-1.2,2.9-2.4,4.5-3.4c0.4-0.3,0.8-0.6,1.2-0.8
	c0.4-0.3,1-0.5,1.5-0.6c0.6-0.1,1.3,0.1,1.8,0.5c0.4,0.3,0.8,0.7,1.1,1.2c1.1,1.5,2,3.1,2.8,4.8c0.8,1.6,1.6,3,2.5,4.4
	c1.7,2.9,4,5.6,6.7,7.7c0.1,0.1,0.1,0.2,0,0.3c0,0-0.1,0.1-0.2,0.1c-3.9-0.5-7.5-2.7-9.7-6c-1-1.6-1.8-3.4-2.4-5.2
	c-0.3-0.9-0.5-1.8-0.8-2.6s-0.4-1.7-0.6-2.5s-0.6-1.4-1.2-1.4c-0.8,0.1-1.5,0.5-2,1.1c-1.3,1.2-2,2.9-2.9,4.4
	c-1,1.5-2.1,2.9-3.4,4.2c-1.2,1.4-2.6,2.6-4.1,3.7c-0.1,0.1-0.2,0.1-0.3,0l0,0C258.4,127.7,258.3,127.6,258.4,127.6z"/>
<path class="st5" d="M77,226.8c-26.4-5.6-52.3-1.6-77,8.5"/>
<path d="M77,226.8c-1.7,0.1-3.3,0.1-5,0l-4.9,0.1c-1.6-0.2-3.2-0.4-4.8-0.5l-4.8-0.3c-6.5-0.3-12.9,0-19.3,0.8s-12.8,2-19,3.7
	l-4.7,1.4l-4.6,1.5L5,234.4c-1.6,0.3-3.3,0.6-4.9,0.9c1.4-0.9,2.8-1.8,4.3-2.7s2.9-1.6,4.4-2.4c1.6-0.5,3.2-1,4.7-1.5l4.8-1.4
	c6.4-1.7,12.9-3,19.5-3.8s13.3-1.1,19.9-0.8l5,0.3l5,0.5c1.6,0.5,3.2,1,4.8,1.5S75.5,226.1,77,226.8z"/>
<path class="st5" d="M67.5,250.3c-23-1.6-45.9,4.9-64.5,18.5"/>
<path d="M67.5,250.3c-1.4,0.3-2.9,0.5-4.3,0.8l-4.2,0.8c-1.4,0-2.8,0.1-4.2,0.1l-4.2,0.3c-11.2,1.1-22.1,4.3-32.1,9.2l-3.7,1.9
	l-3.6,2.1l-4,1.6c-1.3,0.6-2.7,1.1-4,1.6c1-1.1,2-2.1,3-3.2s2.1-2,3.2-3c1.2-0.8,2.5-1.4,3.8-2.2l3.9-2c10.4-5.2,21.7-8.4,33.3-9.6
	l4.3-0.4l4.3-0.2c1.5,0.3,2.9,0.5,4.3,0.8C64.7,249.4,66.1,249.9,67.5,250.3z"/>
<path class="st5" d="M71.5,266.8c-19.8-0.6-33.9,12.4-47,25.5"/>
<path d="M71.5,266.8c-1.2,0.4-2.3,0.7-3.4,1l-3.3,1.1c-1.1,0.1-2.2,0.4-3.3,0.5s-2.1,0.6-3.2,0.8c-4.2,1.3-8.3,3.2-12,5.6
	c-3.8,2.4-7.4,5.2-10.7,8.2l-2.5,2.3c-0.8,0.8-1.6,1.6-2.5,2.3c-2,1.2-4,2.4-6.1,3.6c1.1-2.1,2.4-4.1,3.7-6.1
	c0.8-0.8,1.7-1.6,2.5-2.4l2.6-2.3c3.5-3.1,7.2-6,11.1-8.5c4-2.6,8.3-4.6,12.9-6c1.2-0.3,2.3-0.6,3.5-0.9l1.8-0.3
	c0.3,0,0.6-0.1,0.9-0.2c0.3-0.1,0.6-0.2,0.9-0.1c1.2,0.1,2.4,0.3,3.6,0.5S70.4,266.4,71.5,266.8z"/>
<path class="st5" d="M324.5,208.3c17.1-11.8,38.1-13,58-13"/>
<path d="M324.5,208.3c0.9-1,1.8-1.9,2.7-2.9s2-1.7,3-2.6l3.5-1.7l3.6-1.5c4.8-1.8,9.8-3.1,14.9-4c5-0.9,10.1-1.5,15.2-1.7l3.8-0.2
	c1.3,0,2.5-0.1,3.8-0.1c2.5,0.5,5.1,1,7.6,1.7c-2.5,0.7-5,1.2-7.5,1.8c-1.3,0.1-2.5,0.1-3.7,0.1l-3.7,0.2c-5,0.3-9.9,0.8-14.8,1.7
	c-4.9,0.8-9.6,2.1-14.3,3.9l-3.4,1.4c-1.1,0.5-2.2,1.1-3.3,1.6l-3.6,1.1C327,207.5,325.8,207.9,324.5,208.3z"/>
<path class="st5" d="M327,222.8c15.3-5.7,31.6-8.3,46-3"/>
<path d="M327,222.8c0.8-0.7,1.6-1.3,2.5-1.9s1.7-1.1,2.6-1.7l2.9-0.9l2.9-0.8c3.9-1,7.8-1.7,11.8-2.1c4-0.4,8.1-0.4,12.1,0
	c1,0.1,2,0.3,3,0.4s2,0.4,3,0.6c0.9,0.5,1.8,1,2.7,1.5s1.7,1.2,2.5,1.8c-1,0-2.1,0-3.1,0l-3,0.1c-0.9-0.1-1.9-0.4-2.8-0.5
	s-1.9-0.3-2.8-0.4c-3.8-0.4-7.6-0.4-11.4,0s-7.6,1.1-11.3,2c-1.9,0.5-3.7,1-5.6,1.6l-3,0.1C329.1,222.8,328,222.8,327,222.8z"/>
<path class="st5" d="M338,233.8c11.9-1.9,24-2.2,36-1"/>
<path d="M338,233.8c2.9-1.1,5.8-1.9,8.8-2.4s6-0.9,9.1-1s6.1,0,9.1,0.4c3,0.3,6.1,1,9,2c-3.1,0.4-6.1,0.6-9,0.7s-6,0.3-8.9,0.4
	s-5.9,0.2-8.9,0.2S341.1,234.1,338,233.8z"/>
<path d="M216.5,245.5c-0.3-1.1-0.8-2.2-1.3-3.3c-0.2-0.4-0.5-0.7-0.9-1c-0.3-0.2-0.6-0.2-0.9-0.2c-0.9,0.2-1.6,0.7-2.3,1.3
	c-0.8,0.7-1.5,1.5-2.1,2.4c-0.7,0.8-1.5,4.9-0.7,5.6c1.6,1.7,3.9,2.5,6.2,2.1c4.2-1.1,7.6-4.7,9.6-8.5c0.2-0.4,0.4-0.9,0.6-1.4
	c0.1-0.3,0.2-0.7,0.2-1c0-0.1,0,0,0.1,0.1s0.2,0.1,0.1,0c-0.4-0.1-0.8-0.1-1.1,0.1c-1.1,0.3-2.2,0.7-3.2,1.2l-3.4,1.5
	c-0.1,0-0.2,0-0.2-0.1s0-0.1,0-0.2c0.8-1,1.7-1.9,2.6-2.8c1-0.9,2.1-1.7,3.3-2.3c0.8-0.4,1.6-0.6,2.4-0.6c0.7,0.1,1.3,0.3,1.8,0.8
	c0.5,0.4,0.8,1,0.9,1.7c0.2,0.9,0.1,1.8-0.1,2.6c-0.2,0.7-0.4,1.4-0.7,2c-1.2,2.4-3,4.5-5.2,6.1c-1.1,0.8-2.3,1.5-3.6,2
	s-2.7,0.7-4.1,0.6c-2.6-0.2-5.1-1.4-7.1-3.2c-0.6-0.4-1-1-1.4-1.6c-0.3-0.7-0.5-1.4-0.5-2.1c0-1.4,0.3-2.8,0.9-4.1
	c0.6-1.3,1.5-2.4,2.6-3.3c1.2-1.1,2.7-1.6,4.3-1.6c0.9,0.1,1.8,0.5,2.4,1.2c0.5,0.6,0.9,1.3,1,2.1c0.3,1.3,0.3,2.6,0,3.9
	c0,0.1-0.1,0.2-0.2,0.1C216.6,245.6,216.5,245.6,216.5,245.5z"/>
<g>
	<path class="st3" d="M174.6,148.5c4-0.8,8.1-0.9,12.2-0.7c4.1,0.3,8.1,1,12.1,2c4,1.1,7.8,2.6,11.5,4.4c3.7,1.8,7.2,4,10.5,6.5
		l-3.9,0c2.2-1.4,4.5-2.7,6.9-3.8c2.4-1.1,4.8-1.9,7.4-2.5c2.5-0.6,5.1-1,7.6-1.2c2.6-0.2,5.1-0.1,7.6,0.3c-2.4,0.8-4.8,1.6-7,2.4
		c-2.3,0.9-4.5,1.8-6.6,2.9c-2.1,1-4.2,2.2-6.2,3.4c-2,1.2-3.9,2.5-5.8,4l-1.8,1.4l-2.1-1.4c-3.2-2.1-6.5-4-9.8-5.8
		c-3.4-1.8-6.8-3.3-10.3-4.8c-3.5-1.4-7.2-2.7-10.9-3.9C182.3,150.6,178.5,149.6,174.6,148.5z"/>
</g>
<g>
	<path class="st3" d="M155,137.8c5.4-1.5,11-2.3,16.6-2.6c5.6-0.2,11.3,0.1,16.9,1c11.2,1.8,22.1,5.9,31.7,12l-3.2,0.3
		c2.5-1.9,5.2-3.6,8-4.9c2.8-1.3,5.8-2.3,8.9-2.8c3-0.6,6.1-0.8,9.2-0.6c3,0.2,6,0.7,8.9,1.6c-3,0-5.9,0.2-8.8,0.6
		c-2.9,0.4-5.6,1.1-8.3,2c-2.7,0.9-5.2,2.1-7.6,3.5c-2.4,1.4-4.6,3-6.7,4.9L219,154l-1.8-1c-4.7-2.6-9.6-4.9-14.5-6.8
		c-5-1.9-10.1-3.5-15.3-4.7c-5.2-1.2-10.6-2.1-16-2.7C166,138.2,160.5,137.9,155,137.8z"/>
</g>
<g>
	<path class="st3" d="M185.6,166.8c3-0.8,6.2-1,9.3-0.9c3.1,0.1,6.3,0.6,9.3,1.3c3.1,0.8,6,1.9,8.9,3.3c2.9,1.4,5.6,3.1,8.1,4.9
		l-3.9,0.1c1.7-1.1,3.5-2.2,5.3-3c1.9-0.8,3.8-1.5,5.8-1.9c2-0.4,4-0.7,6-0.7c2,0,4,0.2,5.9,0.7c-1.9,0.6-3.6,1.3-5.3,2
		c-1.7,0.7-3.3,1.5-4.9,2.3c-1.6,0.8-3.1,1.8-4.5,2.7c-1.4,1-2.8,2-4.1,3.1l-1.7,1.5l-2.2-1.4c-2.4-1.5-4.9-2.9-7.4-4.2
		c-2.5-1.3-5.1-2.5-7.7-3.7c-2.6-1.1-5.3-2.2-8.1-3.2C191.4,168.8,188.6,167.9,185.6,166.8z"/>
</g>
<g>
	<path class="st3" d="M179.6,172.5c-1.5-1.4-2.8-2.9-4-4.4c-1.2-1.5-2.4-3.1-3.5-4.7c-1.1-1.6-2.1-3.2-3.1-4.8c-1-1.6-1.9-3.3-2.8-5
		l-0.2-0.4l-0.1-0.6c-0.1-0.4-0.2-0.8-0.3-1c0-0.1-0.1-0.1,0,0c0.1,0.1,0.3,0.4,0.9,0.7c0.5,0.3,1.4,0.1,1.7,0
		c0.1,0,0.2-0.1,0.2-0.1c0,0,0,0,0.1,0c0.1-0.1,0,0,0,0c-0.2,0.1-0.5,0.5-0.9,0.9c-0.8,0.8-1.7,1.7-2.6,2.6c-1,0.9-2,1.7-3.1,2.4
		c-2.1,1.4-4.5,2.5-6.9,3.2c-2.4,0.7-4.8,1.1-7.3,1c2-1.5,3.8-2.9,5.6-4.3c1.8-1.4,3.4-2.9,4.9-4.4c0.7-0.8,1.4-1.6,2.1-2.4
		c0.7-0.8,1.3-1.7,2.1-2.6c0.4-0.5,0.8-1,1.5-1.6c0.2-0.2,0.4-0.3,0.7-0.5l0.4-0.3c0.2-0.1,0.4-0.2,0.6-0.3c0.4-0.2,1-0.3,1.6-0.4
		c0.6,0,1.3,0.1,1.8,0.3c1.1,0.4,1.8,1.2,2.2,1.8c0.4,0.6,0.6,1.1,0.8,1.6c0.3,0.9,0.5,1.7,0.6,2.4l-0.3-1c0.8,1.7,1.6,3.5,2.3,5.2
		c0.7,1.8,1.4,3.6,2,5.4c0.6,1.8,1.2,3.7,1.7,5.6C178.9,168.6,179.3,170.5,179.6,172.5z"/>
</g>
<g>
	<path class="st3" d="M246.4,172.2c0-2.1,0.2-4,0.5-6c0.3-1.9,0.7-3.8,1.2-5.7c0.5-1.9,1.1-3.7,1.7-5.5c0.6-1.8,1.4-3.6,2.1-5.3
		l1-2.2l2.3,0.1c1.8,0.1,3.5,0.3,5.3,0.8c1.7,0.5,3.4,1.3,5,2.4c1.5,1.1,2.9,2.6,3.7,4.4c0.4,0.9,0.6,1.9,0.5,2.8
		c0,0.9-0.3,1.8-0.7,2.6c-0.5-1.6-1.4-2.8-2.5-3.6c-1-0.8-2.2-1.2-3.5-1.6c-1.2-0.3-2.5-0.6-3.9-0.7c-1.3-0.1-2.7-0.2-4.1-0.1
		l3.2-2.1c-0.7,1.8-1.4,3.5-2.2,5.3c-0.8,1.7-1.7,3.4-2.7,5.1c-1,1.7-2,3.3-3.2,4.9C249.1,169.2,247.9,170.8,246.4,172.2z"/>
</g>
<g>
	<path class="st3" d="M46.4,178.4c1.9,1.5,3.8,2.9,5.7,4.2c1.9,1.3,3.8,2.4,5.8,3.4c2,1,4,1.9,6,2.6c2,0.7,4.1,1.3,6.3,1.8l-0.5-0.1
		c2.1,0.1,4.2,0.2,6.3,0.3c2.1,0.2,4.2,0.4,6.3,0.6c2.1,0.3,4.2,0.6,6.3,1c2.1,0.4,4.2,0.9,6.3,1.6c-2.1,0.6-4.2,0.9-6.3,1.3
		c-2.1,0.3-4.2,0.5-6.3,0.7c-2.1,0.2-4.2,0.3-6.3,0.4c-2.1,0.1-4.2,0.1-6.3,0.1l-0.2,0l-0.3-0.1c-2.5-0.5-4.9-1.2-7.2-2.3
		c-2.3-1-4.5-2.3-6.5-3.9c-2-1.5-3.8-3.3-5.3-5.3C48.5,182.8,47.3,180.6,46.4,178.4z"/>
</g>
<g>
	<path class="st3" d="M44.3,196.4c2.2,0.7,4.2,1.5,6.2,2.2c2,0.7,4,1.4,5.9,2c2,0.6,3.9,1.1,5.9,1.6c2,0.5,3.9,0.9,5.9,1.2l-0.5,0
		c2.1,0.1,4.2,0.2,6.3,0.3c2.1,0.2,4.2,0.4,6.3,0.7c2.1,0.3,4.2,0.7,6.3,1.2c2.1,0.5,4.2,1,6.2,1.8c-2.1,0.7-4.2,1.2-6.3,1.6
		c-2.1,0.4-4.2,0.7-6.3,0.9c-2.1,0.2-4.2,0.4-6.3,0.4c-2.1,0.1-4.2,0.1-6.3,0l-0.2,0l-0.3,0c-1.1-0.2-2.3-0.4-3.4-0.7
		c-1.1-0.3-2.2-0.6-3.3-1c-2.2-0.8-4.2-1.7-6.2-2.9c-2-1.2-3.8-2.5-5.5-4C47,200,45.5,198.3,44.3,196.4z"/>
</g>
<g>
	<path class="st3" d="M51.8,161.3c3.4,3.2,6.8,5.9,10.4,7.9c3.6,2,7.5,3.3,11.4,3.8c0.5,0.1,1,0.1,1.5,0.2l1.7,0.1l3.4,0.2
		c2.2,0.2,4.5,0.4,6.7,0.6c4.5,0.6,8.9,1.3,13.4,2.7c-4.5,1.1-9,1.7-13.5,2c-2.3,0.2-4.5,0.3-6.8,0.3l-3.4,0l-1.7,0
		c-0.7,0-1.3-0.1-1.9-0.2c-4.9-0.6-9.7-2.7-13.4-5.9C55.7,169.9,53,165.8,51.8,161.3z"/>
</g>
<g>
	<path class="st3" d="M308.2,199.9c0.7-0.2,1.4-0.2,2.1-0.2c0.7,0,1.3,0,2,0.1c1.3,0.2,2.5,0.5,3.7,0.9l-1.7,0.1
		c0.7-0.4,1.5-0.7,2.4-0.9c0.4-0.1,0.9-0.1,1.4-0.1c0.5,0,1,0,1.6,0.2c-0.1,0.6-0.4,1-0.6,1.5c-0.2,0.4-0.5,0.8-0.8,1.1
		c-0.6,0.7-1.3,1.2-2,1.6l0,0c-0.5,0.3-1.2,0.3-1.7,0.1c-1.2-0.4-2.3-1-3.4-1.7c-0.5-0.4-1-0.8-1.5-1.2
		C309.1,201,308.6,200.6,308.2,199.9z"/>
</g>
<g>
	<polygon class="st3" points="308.7,193.8 315,193.7 313.4,193.9 313.4,193.9 318.1,193.5 315.4,197.4 315.3,197.4 313.7,197.5 	"/>
</g>
<path class="st8" d="M167.7,150.3"/>
<path class="st8" d="M206.5,143.1"/>
<path class="st8" d="M230.3,153.3"/>
</svg>
